<svg width="22" height="22" viewBox="0 0 22 22" fill="none" xmlns="http://www.w3.org/2000/svg">
<g id="name=eye-off, cond=active" clip-path="url(#clip0_4897_12882)">
<path id="Vector" d="M16.4453 16.4449C14.8784 17.6393 12.9703 18.301 11.0003 18.3332C4.58366 18.3332 0.916992 10.9999 0.916992 10.9999C2.05722 8.87493 3.6387 7.01842 5.55533 5.55486M9.07533 3.88653C9.7063 3.73883 10.3523 3.665 11.0003 3.66653C17.417 3.66653 21.0837 10.9999 21.0837 10.9999C20.5272 12.0408 19.8636 13.0209 19.1037 13.924M12.9437 12.9432C12.6919 13.2134 12.3883 13.4301 12.051 13.5804C11.7136 13.7307 11.3495 13.8115 10.9802 13.818C10.611 13.8245 10.2442 13.7566 9.9018 13.6183C9.55938 13.48 9.24832 13.2741 8.98719 13.013C8.72605 12.7519 8.52019 12.4408 8.38188 12.0984C8.24357 11.756 8.17564 11.3892 8.18216 11.0199C8.18867 10.6507 8.26949 10.2866 8.4198 9.94922C8.5701 9.61189 8.78681 9.30829 9.05699 9.05653" stroke="#353535" stroke-width="1.5" stroke-linecap="round" stroke-linejoin="round"/>
<path id="Vector_2" d="M0.916992 0.916504L21.0837 21.0832" stroke="#353535" stroke-width="1.5" stroke-linecap="round" stroke-linejoin="round"/>
</g>
<defs>
<clipPath id="clip0_4897_12882">
<rect width="22" height="22" fill="white"/>
</clipPath>
</defs>
</svg>
