<svg width="28" height="28" viewBox="0 0 28 28" fill="none" xmlns="http://www.w3.org/2000/svg">
<g id="Password generation">
<path id="Union" fill-rule="evenodd" clip-rule="evenodd" d="M18.6508 4.26348C16.3978 3.18753 13.8415 2.92606 11.4173 3.52361C8.99319 4.12117 6.85123 5.54077 5.35642 7.54055C3.86161 9.54032 3.10645 11.9965 3.21959 14.4907C3.33273 16.9848 4.30719 19.3626 5.97691 21.2188C7.64664 23.075 9.90834 24.2949 12.3766 24.6705C14.8449 25.0461 17.3671 24.5542 19.5134 23.2787C21.6597 22.0032 23.2973 20.023 24.1473 17.6754C24.3118 17.221 24.8135 16.986 25.2679 17.1505C25.7223 17.315 25.9573 17.8167 25.7928 18.2711C24.805 20.9994 22.9018 23.3008 20.4074 24.7831C17.9131 26.2655 14.9819 26.8371 12.1134 26.4006C9.2448 25.964 6.61634 24.5464 4.67585 22.3892C2.73535 20.2319 1.60288 17.4686 1.47139 14.57C1.3399 11.6714 2.21752 8.81687 3.95473 6.4928C5.69194 4.16874 8.18125 2.51893 10.9985 1.82447C13.8157 1.13002 16.7866 1.4339 19.405 2.68432C21.9591 3.90411 24.0236 5.951 25.2657 8.48975L27.188 7.81236C27.3643 7.75026 27.5384 7.91018 27.4914 8.09106L26.0982 13.4582C26.0566 13.6184 25.866 13.6856 25.7332 13.5868L21.283 10.2788C21.133 10.1673 21.1684 9.93357 21.3446 9.87147L23.6021 9.07596C22.525 6.97606 20.7869 5.28361 18.6508 4.26348ZM14.0002 7.87787C12.8127 7.87787 11.65 8.92129 11.4173 10.5029H16.5831C16.3503 8.92129 15.1877 7.87787 14.0002 7.87787ZM14.0002 6.12787C11.6532 6.12787 9.90564 8.13862 9.6559 10.5029H9.3335C8.68917 10.5029 8.16684 11.0252 8.16684 11.6695V18.6695C8.16684 19.3139 8.68917 19.8362 9.3335 19.8362H18.6668C19.3112 19.8362 19.8335 19.3139 19.8335 18.6695V11.6695C19.8335 11.0252 19.3112 10.5029 18.6668 10.5029H18.3444C18.0947 8.13862 16.3471 6.12787 14.0002 6.12787ZM9.91684 12.2529V18.0862H18.0835V12.2529H9.91684ZM14.0002 16.3362C14.6445 16.3362 15.1668 15.8139 15.1668 15.1695C15.1668 14.5252 14.6445 14.0029 14.0002 14.0029C13.3558 14.0029 12.8335 14.5252 12.8335 15.1695C12.8335 15.8139 13.3558 16.3362 14.0002 16.3362Z" fill="#353535"/>
</g>
</svg>
