<svg width="20" height="20" viewBox="0 0 20 20" fill="none" xmlns="http://www.w3.org/2000/svg">
<path d="M12.7984 17.4193C12.7984 17.8335 13.1342 18.1693 13.5484 18.1693C13.9627 18.1693 14.2984 17.8335 14.2984 17.4193H12.7984ZM1.18555 17.4193C1.18555 17.8335 1.52133 18.1693 1.93555 18.1693C2.34976 18.1693 2.68555 17.8335 2.68555 17.4193H1.18555ZM14.1936 8.92734C13.7794 8.92734 13.4436 9.26313 13.4436 9.67734C13.4436 10.0916 13.7794 10.4273 14.1936 10.4273V8.92734ZM18.0646 10.4273C18.4788 10.4273 18.8146 10.0916 18.8146 9.67734C18.8146 9.26313 18.4788 8.92734 18.0646 8.92734V10.4273ZM16.8791 7.74186C16.8791 7.32764 16.5433 6.99186 16.1291 6.99186C15.7149 6.99186 15.3791 7.32764 15.3791 7.74186H16.8791ZM15.3791 11.6128C15.3791 12.027 15.7149 12.3628 16.1291 12.3628C16.5433 12.3628 16.8791 12.027 16.8791 11.6128H15.3791ZM11.3468 7.03218C11.3468 9.09215 9.71744 10.7338 7.742 10.7338V12.2338C10.5768 12.2338 12.8468 9.88933 12.8468 7.03218H11.3468ZM7.742 10.7338C5.76656 10.7338 4.13716 9.09215 4.13716 7.03218H2.63716C2.63716 9.88933 4.90722 12.2338 7.742 12.2338V10.7338ZM4.13716 7.03218C4.13716 4.97221 5.76656 3.33057 7.742 3.33057V1.83057C4.90722 1.83057 2.63716 4.17503 2.63716 7.03218H4.13716ZM7.742 3.33057C9.71744 3.33057 11.3468 4.97221 11.3468 7.03218H12.8468C12.8468 4.17503 10.5768 1.83057 7.742 1.83057V3.33057ZM2.68555 17.4193C2.68555 16.5881 2.6867 15.8577 2.77023 15.204C2.85297 14.5563 3.01041 14.0452 3.28278 13.6422C3.79428 12.8852 4.91496 12.2338 7.742 12.2338V10.7338C4.76258 10.7338 2.98004 11.4111 2.03993 12.8023C1.58649 13.4734 1.38103 14.2413 1.28232 15.0139C1.18439 15.7804 1.18555 16.6114 1.18555 17.4193H2.68555ZM7.72534 12.2336C10.5611 12.2966 11.6901 12.9455 12.2042 13.6949C12.4751 14.0898 12.6316 14.5879 12.7139 15.2235C12.7973 15.8663 12.7984 16.5876 12.7984 17.4193H14.2984C14.2984 16.6119 14.2996 15.7879 14.2015 15.0307C14.1024 14.2661 13.896 13.5095 13.4411 12.8464C12.5036 11.4798 10.7294 10.8 7.75866 10.734L7.72534 12.2336ZM14.1936 10.4273H16.1291V8.92734H14.1936V10.4273ZM16.1291 10.4273H18.0646V8.92734H16.1291V10.4273ZM15.3791 7.74186V9.67734H16.8791V7.74186H15.3791ZM15.3791 9.67734V11.6128H16.8791V9.67734H15.3791Z" fill="#49AAF5"/>
</svg>
