<svg width="20" height="20" viewBox="0 0 20 20" fill="none" xmlns="http://www.w3.org/2000/svg">
<path d="M13.0484 17.4193C13.0484 17.6954 13.2723 17.9193 13.5484 17.9193C13.8246 17.9193 14.0484 17.6954 14.0484 17.4193H13.0484ZM1.43555 17.4193C1.43555 17.6954 1.6594 17.9193 1.93555 17.9193C2.21169 17.9193 2.43555 17.6954 2.43555 17.4193H1.43555ZM14.1936 9.17734C13.9175 9.17734 13.6936 9.4012 13.6936 9.67734C13.6936 9.95348 13.9175 10.1773 14.1936 10.1773V9.17734ZM18.0646 10.1773C18.3407 10.1773 18.5646 9.95348 18.5646 9.67734C18.5646 9.4012 18.3407 9.17734 18.0646 9.17734V10.1773ZM16.6291 7.74186C16.6291 7.46571 16.4052 7.24186 16.1291 7.24186C15.853 7.24186 15.6291 7.46571 15.6291 7.74186H16.6291ZM15.6291 11.6128C15.6291 11.889 15.853 12.1128 16.1291 12.1128C16.4052 12.1128 16.6291 11.889 16.6291 11.6128H15.6291ZM11.5968 7.03218C11.5968 9.22501 9.86066 10.9838 7.742 10.9838V11.9838C10.4336 11.9838 12.5968 9.75646 12.5968 7.03218H11.5968ZM7.742 10.9838C5.62333 10.9838 3.88716 9.22501 3.88716 7.03218H2.88716C2.88716 9.75646 5.05044 11.9838 7.742 11.9838V10.9838ZM3.88716 7.03218C3.88716 4.83935 5.62333 3.08057 7.742 3.08057V2.08057C5.05044 2.08057 2.88716 4.3079 2.88716 7.03218H3.88716ZM7.742 3.08057C9.86066 3.08057 11.5968 4.83935 11.5968 7.03218H12.5968C12.5968 4.3079 10.4336 2.08057 7.742 2.08057V3.08057ZM2.43555 17.4193C2.43555 16.592 2.43632 15.8448 2.52224 15.1723C2.60764 14.5038 2.77309 13.9499 3.07564 13.5022C3.65857 12.6395 4.88956 11.9838 7.742 11.9838V10.9838C4.78798 10.9838 3.11575 11.6568 2.24707 12.9423C1.82381 13.5687 1.62635 14.2938 1.5303 15.0456C1.43478 15.7932 1.43555 16.6075 1.43555 17.4193H2.43555ZM7.73089 11.9837C10.5891 12.0472 11.8256 12.7012 12.4103 13.5535C12.7119 13.9931 12.8767 14.5343 12.9619 15.1913C13.0477 15.8532 13.0484 16.5917 13.0484 17.4193H14.0484C14.0484 16.6078 14.0492 15.801 13.9536 15.0628C13.8573 14.3198 13.6592 13.6062 13.2349 12.9878C12.368 11.7241 10.7013 11.0494 7.75311 10.9839L7.73089 11.9837ZM14.1936 10.1773H16.1291V9.17734H14.1936V10.1773ZM16.1291 10.1773H18.0646V9.17734H16.1291V10.1773ZM15.6291 7.74186V9.67734H16.6291V7.74186H15.6291ZM15.6291 9.67734V11.6128H16.6291V9.67734H15.6291Z" fill="#353535"/>
</svg>
