<svg width="20" height="20" viewBox="0 0 20 20" fill="none" xmlns="http://www.w3.org/2000/svg">
<path d="M13.5697 15.5C13.5697 15.9142 13.9055 16.25 14.3197 16.25C14.7339 16.25 15.0697 15.9142 15.0697 15.5H13.5697ZM4.76087 15.5C4.76087 15.9142 5.09665 16.25 5.51087 16.25C5.92508 16.25 6.26087 15.9142 6.26087 15.5H4.76087ZM15.7375 12.4391V11.6891C15.3264 11.6891 14.9919 12.0202 14.9876 12.4313C14.9833 12.8424 15.3108 13.1804 15.7218 13.189L15.7375 12.4391ZM15.4867 7.09783C15.0725 7.09783 14.7367 7.43361 14.7367 7.84783C14.7367 8.26204 15.0725 8.59783 15.4867 8.59783V7.09783ZM17.7295 15.5C17.7295 15.9142 18.0652 16.25 18.4795 16.25C18.8937 16.25 19.2295 15.9142 19.2295 15.5H17.7295ZM4.26231 12.4391L4.27799 13.189C4.68905 13.1804 5.01656 12.8424 5.01226 12.4313C5.00796 12.0202 4.67346 11.6891 4.26231 11.6891V12.4391ZM4.5133 8.59783C4.92751 8.59783 5.2633 8.26204 5.2633 7.84783C5.2633 7.43361 4.92751 7.09783 4.5133 7.09783V8.59783ZM0.770547 15.5C0.770547 15.9142 1.10633 16.25 1.52055 16.25C1.93476 16.25 2.27055 15.9142 2.27055 15.5H0.770547ZM12.4686 7.8C12.4686 9.20762 11.3262 10.35 9.91529 10.35V11.85C12.1532 11.85 13.9686 10.0375 13.9686 7.8H12.4686ZM9.91529 10.35C8.50442 10.35 7.36197 9.20762 7.36197 7.8H5.86197C5.86197 10.0375 7.67741 11.85 9.91529 11.85V10.35ZM7.36197 7.8C7.36197 6.39238 8.50442 5.25 9.91529 5.25V3.75C7.67741 3.75 5.86197 5.56254 5.86197 7.8H7.36197ZM9.91529 5.25C11.3262 5.25 12.4686 6.39238 12.4686 7.8H13.9686C13.9686 5.56254 12.1532 3.75 9.91529 3.75V5.25ZM6.26087 15.5C6.26087 14.8805 6.26207 14.3533 6.32336 13.8845C6.38375 13.4226 6.49621 13.0787 6.67831 12.8153C7.0122 12.3324 7.78379 11.85 9.91529 11.85V10.35C7.64236 10.35 6.21174 10.8526 5.44452 11.9622C5.07608 12.4951 4.91325 13.0993 4.83601 13.6901C4.75966 14.2742 4.76087 14.9044 4.76087 15.5H6.26087ZM9.899 11.8498C12.0389 11.8963 12.8187 12.376 13.1553 12.8555C13.3359 13.1128 13.4474 13.4469 13.5074 13.8994C13.5685 14.3598 13.5697 14.8801 13.5697 15.5H15.0697C15.0697 14.9049 15.071 14.2796 14.9944 13.7022C14.9167 13.1168 14.7529 12.5207 14.383 11.9937C13.6185 10.9046 12.1961 10.3994 9.93157 10.3502L9.899 11.8498ZM16.9342 10.1435C16.9342 10.665 16.8035 11.0604 16.6122 11.3073C16.4402 11.5292 16.1778 11.6891 15.7375 11.6891V13.1891C16.6149 13.1891 17.3258 12.8352 17.7978 12.2262C18.2504 11.6422 18.4342 10.8899 18.4342 10.1435H16.9342ZM15.4867 8.59783C16.3368 8.59783 16.9342 9.23448 16.9342 10.1435H18.4342C18.4342 8.51677 17.2718 7.09783 15.4867 7.09783V8.59783ZM15.7218 13.189C17.2825 13.2216 17.5602 13.5631 17.638 13.7106C17.6999 13.8279 17.7409 14.0105 17.7486 14.3357C17.7523 14.4938 17.7482 14.6653 17.7424 14.8639C17.7368 15.0568 17.7295 15.2751 17.7295 15.5H19.2295C19.2295 15.3023 19.2359 15.1101 19.2418 14.9078C19.2475 14.7112 19.2529 14.503 19.2481 14.3002C19.2388 13.9034 19.1907 13.4389 18.9647 13.0106C18.4668 12.0669 17.3735 11.7232 15.7532 11.6893L15.7218 13.189ZM1.56579 10.1435C1.56579 10.8898 1.74958 11.6422 2.20211 12.2262C2.67406 12.8352 3.38492 13.1891 4.26231 13.1891V11.6891C3.82209 11.6891 3.55969 11.5292 3.38778 11.3073C3.19645 11.0605 3.06579 10.665 3.06579 10.1435H1.56579ZM4.5133 7.09783C2.7282 7.09783 1.56579 8.51677 1.56579 10.1435H3.06579C3.06579 9.23447 3.66318 8.59783 4.5133 8.59783V7.09783ZM4.24662 11.6893C2.62634 11.7232 1.53307 12.0669 1.03521 13.0106C0.809258 13.439 0.761203 13.9034 0.751831 14.3002C0.747041 14.503 0.752441 14.7113 0.75821 14.9079C0.764144 15.1101 0.770547 15.3023 0.770547 15.5H2.27055C2.27055 15.2751 2.26322 15.0568 2.25756 14.8639C2.25174 14.6653 2.24768 14.4938 2.25141 14.3356C2.25909 14.0104 2.30005 13.8278 2.36192 13.7105C2.43969 13.5631 2.7173 13.2216 4.27799 13.189L4.24662 11.6893Z" fill="#49AAF5"/>
</svg>
