<svg width="20" height="20" viewBox="0 0 20 20" fill="none" xmlns="http://www.w3.org/2000/svg">
<path d="M13.8197 15.5C13.8197 15.7761 14.0436 16 14.3197 16C14.5959 16 14.8197 15.7761 14.8197 15.5H13.8197ZM5.01087 15.5C5.01087 15.7761 5.23472 16 5.51087 16C5.78701 16 6.01087 15.7761 6.01087 15.5H5.01087ZM15.7375 12.4391V11.9391C15.4634 11.9391 15.2404 12.1598 15.2376 12.4339C15.2347 12.708 15.453 12.9333 15.7271 12.939L15.7375 12.4391ZM15.4867 7.34783C15.2106 7.34783 14.9867 7.57168 14.9867 7.84783C14.9867 8.12397 15.2106 8.34783 15.4867 8.34783V7.34783ZM17.9795 15.5C17.9795 15.7761 18.2033 16 18.4795 16C18.7556 16 18.9795 15.7761 18.9795 15.5H17.9795ZM4.26231 12.4391L4.27276 12.939C4.5468 12.9333 4.76514 12.708 4.76228 12.4339C4.75941 12.1598 4.53641 11.9391 4.26231 11.9391V12.4391ZM4.5133 8.34783C4.78944 8.34783 5.0133 8.12397 5.0133 7.84783C5.0133 7.57168 4.78944 7.34783 4.5133 7.34783V8.34783ZM1.02055 15.5C1.02055 15.7761 1.2444 16 1.52055 16C1.79669 16 2.02055 15.7761 2.02055 15.5H1.02055ZM12.7186 7.8C12.7186 9.34592 11.464 10.6 9.91529 10.6V11.6C12.0153 11.6 13.7186 9.89916 13.7186 7.8H12.7186ZM9.91529 10.6C8.36658 10.6 7.11197 9.34592 7.11197 7.8H6.11197C6.11197 9.89915 7.81524 11.6 9.91529 11.6V10.6ZM7.11197 7.8C7.11197 6.25408 8.36658 5 9.91529 5V4C7.81524 4 6.11197 5.70085 6.11197 7.8H7.11197ZM9.91529 5C11.464 5 12.7186 6.25408 12.7186 7.8H13.7186C13.7186 5.70084 12.0153 4 9.91529 4V5ZM6.01087 15.5C6.01087 14.8845 6.01167 14.3401 6.07547 13.8521C6.13867 13.3687 6.25952 12.9814 6.47268 12.6731C6.87879 12.0858 7.76022 11.6 9.91529 11.6V10.6C7.66593 10.6 6.34515 11.0992 5.65015 12.1044C5.31277 12.5923 5.15834 13.1532 5.0839 13.7225C5.01006 14.2873 5.01087 14.9005 5.01087 15.5H6.01087ZM9.90443 11.5999C12.0651 11.6468 12.952 12.1308 13.3599 12.7119C13.5721 13.0141 13.6923 13.3919 13.7552 13.8665C13.8189 14.3464 13.8197 14.8842 13.8197 15.5H14.8197C14.8197 14.9007 14.8205 14.293 14.7466 13.735C14.6719 13.1718 14.5168 12.6194 14.1784 12.1373C13.4852 11.1499 12.1699 10.6488 9.92614 10.6001L9.90443 11.5999ZM17.1842 10.1435C17.1842 10.7024 17.0447 11.1574 16.8098 11.4605C16.5878 11.7468 16.2506 11.9391 15.7375 11.9391V12.9391C16.542 12.9391 17.1782 12.6175 17.6002 12.073C18.0092 11.5453 18.1842 10.8524 18.1842 10.1435H17.1842ZM15.4867 8.34783C16.4926 8.34783 17.1842 9.11486 17.1842 10.1435H18.1842C18.1842 8.63639 17.116 7.34783 15.4867 7.34783V8.34783ZM15.7271 12.939C17.2977 12.9719 17.7113 13.3137 17.8591 13.5939C17.9484 13.763 17.9905 13.9926 17.9985 14.3298C18.0024 14.4954 17.9981 14.673 17.9923 14.8712C17.9866 15.0656 17.9795 15.2796 17.9795 15.5H18.9795C18.9795 15.2978 18.986 15.1012 18.9919 14.9005C18.9977 14.7036 19.0028 14.5015 18.9982 14.3061C18.9891 13.9212 18.9422 13.5037 18.7436 13.1273C18.3157 12.3163 17.3583 11.9729 15.748 11.9392L15.7271 12.939ZM1.81579 10.1435C1.81579 10.8523 1.99073 11.5452 2.39973 12.073C2.82167 12.6175 3.45778 12.9391 4.26231 12.9391V11.9391C3.74923 11.9391 3.41208 11.7468 3.19017 11.4605C2.95531 11.1574 2.81579 10.7025 2.81579 10.1435H1.81579ZM4.5133 7.34783C2.88403 7.34783 1.81579 8.63639 1.81579 10.1435H2.81579C2.81579 9.11486 3.50735 8.34783 4.5133 8.34783V7.34783ZM4.25185 11.9392C2.6415 11.9729 1.68417 12.3163 1.25632 13.1273C1.05772 13.5038 1.01085 13.9213 1.00176 14.3061C0.997147 14.5015 1.00232 14.7036 1.0081 14.9005C1.01399 15.1012 1.02055 15.2978 1.02055 15.5H2.02055C2.02055 15.2796 2.01338 15.0656 2.00767 14.8712C2.00186 14.673 1.99757 14.4954 2.00148 14.3297C2.00945 13.9926 2.05158 13.763 2.1408 13.5939C2.28858 13.3137 2.70214 12.9719 4.27276 12.939L4.25185 11.9392Z" fill="#353535"/>
</svg>
