<svg width="26" height="28" viewBox="0 0 26 28" fill="none" xmlns="http://www.w3.org/2000/svg">
<g filter="url(#filter0_d_2263_19264)">
<path d="M7.28026 18.1403L7.05224 18.5853H7.05224L7.28026 18.1403ZM5.14358 11.9773L4.64358 11.9734V11.9773H5.14358ZM5.5609 16.4112L6.00692 16.1853H6.00692L5.5609 16.4112ZM20.8578 11.9773H21.3579L21.3578 11.971L20.8578 11.9773ZM20.4405 16.4112L20.8865 16.6372L20.4405 16.4112ZM18.7211 18.1403L18.9492 18.5853L18.7211 18.1403ZM18.7211 4.49535L18.4931 4.94034V4.94034L18.7211 4.49535ZM20.4405 6.22444L20.8865 5.99846L20.4405 6.22444ZM7.28026 4.49535L7.50827 4.94034L7.28026 4.49535ZM5.5609 6.22444L6.00692 6.45042L5.5609 6.22444ZM20.8269 7.94834L20.3281 7.98164V7.98165L20.8269 7.94834ZM20.8136 8.44031L20.3372 8.28857V8.28857L20.8136 8.44031ZM20.64 8.71799L20.9417 9.11676L20.9643 9.09964L20.9848 9.08008L20.64 8.71799ZM5.18776 8.44031L5.66418 8.28857L5.18776 8.44031ZM5.36138 8.71799L5.01657 9.08008L5.03712 9.09964L5.05974 9.11676L5.36138 8.71799ZM11.1424 11.2284L11.2231 10.7349L11.1424 11.2284ZM5.46177 8.79393L5.7634 8.39516L5.7634 8.39516L5.46177 8.79393ZM14.859 11.2284L14.7783 10.7349L14.859 11.2284ZM20.5396 8.79393L20.8413 9.1927L20.8413 9.1927L20.5396 8.79393ZM11.427 4.56411H14.5744V3.56411H11.427V4.56411ZM14.5744 18.0716H11.427V19.0716H14.5744V18.0716ZM11.427 18.0716C10.317 18.0716 9.51471 18.0712 8.88388 18.0193C8.25897 17.968 7.84659 17.8687 7.50827 17.6953L7.05224 18.5853C7.55552 18.8432 8.11479 18.9595 8.80199 19.016C9.48327 19.072 10.3336 19.0716 11.427 19.0716V18.0716ZM4.64358 11.9773C4.64358 13.077 4.64041 13.9952 4.69266 14.7427C4.74462 15.486 4.85407 16.1224 5.11488 16.6372L6.00692 16.1853C5.83893 15.8537 5.73972 15.381 5.69022 14.673C5.64101 13.969 5.64358 13.0934 5.64358 11.9773H4.64358ZM7.50827 17.6953C6.86229 17.3643 6.33657 16.8359 6.00692 16.1853L5.11488 16.6372C5.53963 17.4755 6.21765 18.1577 7.05224 18.5853L7.50827 17.6953ZM20.3578 11.9773C20.3578 13.0934 20.3604 13.969 20.3112 14.673C20.2617 15.381 20.1625 15.8537 19.9945 16.1853L20.8865 16.6372C21.1473 16.1224 21.2568 15.486 21.3087 14.7427C21.361 13.9952 21.3578 13.077 21.3578 11.9773H20.3578ZM14.5744 19.0716C15.6678 19.0716 16.5181 19.072 17.1994 19.016C17.8866 18.9595 18.4459 18.8432 18.9492 18.5853L18.4931 17.6953C18.1548 17.8687 17.7424 17.968 17.1175 18.0193C16.4867 18.0712 15.6844 18.0716 14.5744 18.0716V19.0716ZM19.9945 16.1853C19.6648 16.8359 19.1391 17.3643 18.4931 17.6953L18.9492 18.5853C19.7837 18.1577 20.4618 17.4755 20.8865 16.6372L19.9945 16.1853ZM14.5744 4.56411C15.6844 4.56411 16.4867 4.56451 17.1175 4.61634C17.7424 4.66769 18.1548 4.76698 18.4931 4.94034L18.9492 4.05037C18.4459 3.79249 17.8866 3.67616 17.1994 3.6197C16.5181 3.56372 15.6678 3.56411 14.5744 3.56411V4.56411ZM18.4931 4.94034C19.1391 5.27134 19.6648 5.79979 19.9945 6.45042L20.8865 5.99846C20.4618 5.16013 19.7837 4.47803 18.9492 4.05037L18.4931 4.94034ZM11.427 3.56411C10.3336 3.56411 9.48327 3.56372 8.80199 3.6197C8.11479 3.67616 7.55552 3.79249 7.05224 4.05037L7.50827 4.94034C7.84659 4.76698 8.25897 4.66769 8.88388 4.61634C9.51471 4.56451 10.317 4.56411 11.427 4.56411V3.56411ZM7.05224 4.05037C6.21765 4.47803 5.53963 5.16013 5.11488 5.99846L6.00692 6.45042C6.33657 5.7998 6.86229 5.27134 7.50827 4.94034L7.05224 4.05037ZM5.67334 7.98165C5.72081 7.27053 5.8208 6.81777 6.00692 6.45042L5.11488 5.99846C4.83982 6.54135 4.72663 7.15012 4.67556 7.91503L5.67334 7.98165ZM21.3258 7.91503C21.2748 7.15012 21.1616 6.54135 20.8865 5.99846L19.9945 6.45042C20.1806 6.81777 20.2806 7.27053 20.3281 7.98164L21.3258 7.91503ZM20.3281 7.98165C20.3368 8.1128 20.3413 8.18434 20.3408 8.23836C20.3406 8.26212 20.3394 8.275 20.3386 8.28146C20.3378 8.2869 20.3373 8.28839 20.3372 8.28857L21.2901 8.59205C21.3635 8.36143 21.34 8.12692 21.3258 7.91503L20.3281 7.98165ZM20.3372 8.28857C20.3301 8.31082 20.3116 8.34028 20.2952 8.3559L20.9848 9.08008C21.1232 8.94827 21.2321 8.77401 21.2901 8.59205L20.3372 8.28857ZM4.67556 7.91503C4.66141 8.12693 4.63788 8.36143 4.71134 8.59205L5.66418 8.28857C5.66412 8.28839 5.66356 8.2869 5.66283 8.28146C5.66197 8.275 5.66076 8.26212 5.66056 8.23836C5.66012 8.18434 5.66458 8.1128 5.67334 7.98165L4.67556 7.91503ZM4.71134 8.59205C4.76929 8.77401 4.87815 8.94827 5.01657 9.08008L5.70618 8.3559C5.68977 8.34028 5.67126 8.31082 5.66418 8.28857L4.71134 8.59205ZM12.6728 10.499H13.3286V9.49898H12.6728V10.499ZM13.8121 10.9881V12.307H14.8121V10.9881H13.8121ZM13.3286 12.7961H12.6728V13.7961H13.3286V12.7961ZM12.1893 12.307V10.9881H11.1893V12.307H12.1893ZM12.6728 12.7961C12.4084 12.7961 12.1893 12.5798 12.1893 12.307H11.1893C11.1893 13.1267 11.8508 13.7961 12.6728 13.7961V12.7961ZM13.8121 12.307C13.8121 12.5798 13.593 12.7961 13.3286 12.7961V13.7961C14.1506 13.7961 14.8121 13.1267 14.8121 12.307H13.8121ZM13.3286 10.499C13.593 10.499 13.8121 10.7153 13.8121 10.9881H14.8121C14.8121 10.1684 14.1506 9.49898 13.3286 9.49898V10.499ZM12.6728 9.49898C11.8508 9.49898 11.1893 10.1684 11.1893 10.9881H12.1893C12.1893 10.7153 12.4084 10.499 12.6728 10.499V9.49898ZM12.3564 1.92871H13.6679V0.928711H12.3564V1.92871ZM15.135 3.407V4.06643H16.135V3.407H15.135ZM9.88929 3.407V4.06643H10.8893V3.407H9.88929ZM13.6679 1.92871C14.4755 1.92871 15.135 2.5879 15.135 3.407H16.135C16.135 2.04094 15.0331 0.928711 13.6679 0.928711V1.92871ZM12.3564 0.928711C10.9912 0.928711 9.88929 2.04094 9.88929 3.407H10.8893C10.8893 2.5879 11.5488 1.92871 12.3564 1.92871V0.928711ZM14.7783 10.7349L14.2314 10.8244L14.3929 11.8113L14.9397 11.7218L14.7783 10.7349ZM20.8413 9.1927L20.9417 9.11676L20.3384 8.31922L20.238 8.39516L20.8413 9.1927ZM11.0617 11.7218L11.6085 11.8113L11.77 10.8244L11.2231 10.7349L11.0617 11.7218ZM5.7634 8.39516L5.66301 8.31922L5.05974 9.11676L5.16013 9.1927L5.7634 8.39516ZM11.2231 10.7349C9.24005 10.4105 7.366 9.6074 5.7634 8.39516L5.16013 9.1927C6.89242 10.503 8.91813 11.3712 11.0617 11.7218L11.2231 10.7349ZM14.9397 11.7218C17.0833 11.3712 19.109 10.503 20.8413 9.1927L20.238 8.39516C18.6354 9.6074 16.7613 10.4105 14.7783 10.7349L14.9397 11.7218ZM21.3578 11.971L21.3136 8.43407L20.3137 8.44656L20.3579 11.9835L21.3578 11.971ZM5.64357 11.9811L5.67443 7.95217L4.67446 7.94451L4.6436 11.9734L5.64357 11.9811Z" fill="#353535"/>
</g>
<defs>
<filter id="filter0_d_2263_19264" x="-1" y="0" width="28" height="28" filterUnits="userSpaceOnUse" color-interpolation-filters="sRGB">
<feFlood flood-opacity="0" result="BackgroundImageFix"/>
<feColorMatrix in="SourceAlpha" type="matrix" values="0 0 0 0 0 0 0 0 0 0 0 0 0 0 0 0 0 0 127 0" result="hardAlpha"/>
<feOffset dy="4"/>
<feGaussianBlur stdDeviation="2"/>
<feComposite in2="hardAlpha" operator="out"/>
<feColorMatrix type="matrix" values="0 0 0 0 0 0 0 0 0 0 0 0 0 0 0 0 0 0 0.25 0"/>
<feBlend mode="normal" in2="BackgroundImageFix" result="effect1_dropShadow_2263_19264"/>
<feBlend mode="normal" in="SourceGraphic" in2="effect1_dropShadow_2263_19264" result="shape"/>
</filter>
</defs>
</svg>
