<svg width="20" height="20" viewBox="0 0 20 20" fill="none" xmlns="http://www.w3.org/2000/svg">
<path d="M4.28026 18.1403L3.93824 18.8078H3.93824L4.28026 18.1403ZM2.14358 11.9773L1.39358 11.9715V11.9773H2.14358ZM2.5609 16.4112L3.22993 16.0723H3.22993L2.5609 16.4112ZM17.8578 11.9773H18.6079L18.6078 11.9679L17.8578 11.9773ZM17.4405 16.4112L18.1095 16.7502L17.4405 16.4112ZM15.7211 18.1403L16.0632 18.8078L15.7211 18.1403ZM15.7211 4.49535L15.3791 5.16283L15.7211 4.49535ZM17.4405 6.22444L18.1095 5.88547L17.4405 6.22444ZM4.28026 4.49535L4.62228 5.16283L4.28026 4.49535ZM2.5609 6.22444L3.22993 6.56341L2.5609 6.22444ZM17.8269 7.94834L17.0786 7.9983V7.9983L17.8269 7.94834ZM17.8136 8.44031L17.099 8.2127V8.2127L17.8136 8.44031ZM17.64 8.71799L18.0925 9.31614L18.1264 9.29047L18.1572 9.26113L17.64 8.71799ZM2.18776 8.44031L2.90239 8.21271V8.2127L2.18776 8.44031ZM2.36138 8.71799L1.84417 9.26113L1.87499 9.29047L1.90892 9.31614L2.36138 8.71799ZM8.14241 11.2284L8.26349 10.4882L8.14241 11.2284ZM2.46177 8.79393L2.91422 8.19578L2.91422 8.19578L2.46177 8.79393ZM11.859 11.2284L11.7379 10.4882L11.859 11.2284ZM17.5396 8.79393L17.9921 9.39208L17.9921 9.39208L17.5396 8.79393ZM8.42698 4.81411H11.5744V3.31411H8.42698V4.81411ZM11.5744 17.8216H8.42698V19.3216H11.5744V17.8216ZM8.42698 17.8216C7.31282 17.8216 6.52257 17.821 5.90435 17.7702C5.29501 17.7201 4.91935 17.6251 4.62228 17.4728L3.93824 18.8078C4.48276 19.0868 5.07875 19.2074 5.78152 19.2651C6.47541 19.3222 7.33771 19.3216 8.42698 19.3216V17.8216ZM1.39358 11.9773C1.39358 13.0729 1.39026 14.0018 1.44326 14.7601C1.49584 15.5123 1.60785 16.1896 1.89187 16.7502L3.22993 16.0723C3.08514 15.7865 2.98849 15.3548 2.93961 14.6555C2.89117 13.9624 2.89358 13.0975 2.89358 11.9773H1.39358ZM4.62228 17.4728C4.02345 17.166 3.5358 16.676 3.22993 16.0723L1.89187 16.7502C2.34039 17.6355 3.05649 18.356 3.93824 18.8078L4.62228 17.4728ZM17.1078 11.9773C17.1078 13.0975 17.1102 13.9624 17.0618 14.6555C17.0129 15.3548 16.9163 15.7865 16.7715 16.0723L18.1095 16.7502C18.3935 16.1896 18.5056 15.5123 18.5581 14.7601C18.6111 14.0018 18.6078 13.0729 18.6078 11.9773H17.1078ZM11.5744 19.3216C12.6637 19.3216 13.526 19.3222 14.2199 19.2651C14.9227 19.2074 15.5186 19.0868 16.0632 18.8078L15.3791 17.4728C15.082 17.6251 14.7064 17.7201 14.097 17.7702C13.4788 17.821 12.6886 17.8216 11.5744 17.8216V19.3216ZM16.7715 16.0723C16.4656 16.676 15.9779 17.166 15.3791 17.4728L16.0632 18.8078C16.9449 18.356 17.661 17.6355 18.1095 16.7502L16.7715 16.0723ZM11.5744 4.81411C12.6886 4.81411 13.4788 4.8147 14.097 4.8655C14.7064 4.91557 15.082 5.01061 15.3791 5.16283L16.0632 3.82788C15.5186 3.54886 14.9227 3.42828 14.2199 3.37054C13.526 3.31352 12.6637 3.31411 11.5744 3.31411V4.81411ZM15.3791 5.16283C15.9779 5.46967 16.4656 5.95971 16.7715 6.56341L18.1095 5.88547C17.661 5.00022 16.9449 4.2797 16.0632 3.82788L15.3791 5.16283ZM8.42698 3.31411C7.33771 3.31411 6.47541 3.31352 5.78152 3.37054C5.07875 3.42828 4.48276 3.54886 3.93824 3.82788L4.62228 5.16283C4.91935 5.01061 5.29501 4.91557 5.90435 4.8655C6.52257 4.8147 7.31282 4.81411 8.42698 4.81411V3.31411ZM3.93824 3.82788C3.05649 4.2797 2.34039 5.00022 1.89187 5.88547L3.22993 6.56341C3.5358 5.95971 4.02345 5.46967 4.62228 5.16283L3.93824 3.82788ZM2.92278 7.9983C2.96936 7.30063 3.06605 6.88688 3.22993 6.56341L1.89187 5.88547C1.59458 6.47225 1.47808 7.12002 1.42611 7.89837L2.92278 7.9983ZM18.5753 7.89837C18.5233 7.12002 18.4068 6.47225 18.1095 5.88547L16.7715 6.56341C16.9354 6.88688 17.032 7.30063 17.0786 7.9983L18.5753 7.89837ZM17.0786 7.9983C17.0829 8.06191 17.0861 8.11017 17.0882 8.15188C17.0904 8.19332 17.091 8.21913 17.0908 8.23632C17.0906 8.26574 17.0882 8.2467 17.099 8.2127L18.5283 8.66792C18.6194 8.38189 18.5882 8.09216 18.5753 7.89837L17.0786 7.9983ZM17.099 8.2127C17.1013 8.20539 17.1034 8.20059 17.1047 8.19794C17.1059 8.19524 17.1069 8.19345 17.1077 8.19219C17.1085 8.19092 17.1097 8.18917 17.1117 8.18676C17.1136 8.1844 17.1171 8.18031 17.1228 8.17485L18.1572 9.26113C18.3262 9.10027 18.4576 8.8898 18.5283 8.66792L17.099 8.2127ZM1.42611 7.89837C1.41317 8.09217 1.38203 8.38189 1.47313 8.66792L2.90239 8.2127C2.91321 8.24669 2.9108 8.26574 2.91056 8.23632C2.91042 8.21913 2.91102 8.19332 2.91317 8.15188C2.91533 8.11018 2.91853 8.06191 2.92278 7.9983L1.42611 7.89837ZM1.47313 8.66792C1.5438 8.88981 1.67525 9.10027 1.84417 9.26113L2.87858 8.17485C2.88431 8.18031 2.88784 8.1844 2.88974 8.18676C2.89168 8.18917 2.89287 8.19092 2.89366 8.19218C2.89445 8.19344 2.89548 8.19523 2.89674 8.19793C2.89799 8.20058 2.90006 8.20539 2.90239 8.21271L1.47313 8.66792ZM9.67284 10.749H10.3286V9.24898H9.67284V10.749ZM10.5621 10.9881V12.307H12.0621V10.9881H10.5621ZM10.3286 12.5461H9.67284V14.0461H10.3286V12.5461ZM9.43926 12.307V10.9881H7.93926V12.307H9.43926ZM9.67284 12.5461C9.54783 12.5461 9.43926 12.4431 9.43926 12.307H7.93926C7.93926 13.2635 8.71142 14.0461 9.67284 14.0461V12.5461ZM10.5621 12.307C10.5621 12.4431 10.4536 12.5461 10.3286 12.5461V14.0461C11.29 14.0461 12.0621 13.2635 12.0621 12.307H10.5621ZM10.3286 10.749C10.4536 10.749 10.5621 10.8521 10.5621 10.9881H12.0621C12.0621 10.0316 11.29 9.24898 10.3286 9.24898V10.749ZM9.67284 9.24898C8.71142 9.24898 7.93926 10.0316 7.93926 10.9881H9.43926C9.43926 10.852 9.54783 10.749 9.67284 10.749V9.24898ZM9.35645 2.17871H10.6679V0.678711H9.35645V2.17871ZM11.885 3.407V4.06643H13.385V3.407H11.885ZM6.63929 3.407V4.06643H8.13929V3.407H6.63929ZM10.6679 2.17871C11.3361 2.17871 11.885 2.72464 11.885 3.407H13.385C13.385 1.9042 12.1725 0.678711 10.6679 0.678711V2.17871ZM9.35645 0.678711C7.85182 0.678711 6.63929 1.90421 6.63929 3.407H8.13929C8.13929 2.72464 8.68822 2.17871 9.35645 2.17871V0.678711ZM11.7379 10.4882L11.1911 10.5777L11.4332 12.058L11.9801 11.9685L11.7379 10.4882ZM17.9921 9.39208L18.0925 9.31614L17.1876 8.11984L17.0872 8.19578L17.9921 9.39208ZM8.02132 11.9685L8.56818 12.058L8.81035 10.5777L8.26349 10.4882L8.02132 11.9685ZM2.91422 8.19578L2.81383 8.11984L1.90892 9.31614L2.00932 9.39208L2.91422 8.19578ZM8.26349 10.4882C6.32053 10.1704 4.4844 9.38349 2.91422 8.19578L2.00932 9.39208C3.77403 10.7269 5.83764 11.6113 8.02132 11.9685L8.26349 10.4882ZM11.9801 11.9685C14.1638 11.6113 16.2274 10.7269 17.9921 9.39208L17.0872 8.19578C15.517 9.38349 13.6809 10.1704 11.7379 10.4882L11.9801 11.9685ZM18.6078 11.9679L18.5636 8.43095L17.0637 8.44968L17.1079 11.9866L18.6078 11.9679ZM2.89356 11.983L2.92442 7.95408L1.42447 7.94259L1.39361 11.9715L2.89356 11.983Z" fill="#49AAF5"/>
</svg>
